<svg version="1.2" xmlns="http://www.w3.org/2000/svg" viewBox="0 0 3000 2000" width="3000" height="2000">
	<title>vecteezy_vector-illustration-of-the-black-pattern-of-lines-abstract_21573666-ai</title>
	<style>
		.s0 { fill: none;stroke: #eff1f333;stroke-width: 3 } 
	</style>
	<g id="&lt;Group&gt;" style="opacity: .4">
		<path id="&lt;Path&gt;" class="s0" d="m988.5-1962c84.1 747-141.3 714.6-299.7 810.2-225.1 136-403.2 232.9-613.4 402.9-216.6 175.1-22.5 451-236.1 766.7-222.5 328.7-581.7 249.7-748.8 577.6-87.4 171.4-71.6 354.8-47.2 477.4"/>
		<path id="&lt;Path&gt;" class="s0" d="m1016.9-1866.4c84.1 747-141.5 715-299.9 810.6-225.1 136-402.9 232.5-613.1 402.5-216.6 175.1-22.5 451-236.2 766.7-222.5 328.7-581.7 249.7-748.8 577.6-87.3 171.4-71.6 354.8-47.2 477.4"/>
		<path id="&lt;Path&gt;" class="s0" d="m1049.1-1776.5c84.1 747-141.8 715.4-300.2 811-225.2 136-402.7 232.1-612.9 402.1-216.6 175.2-22.5 451-236.2 766.7-222.4 328.7-581.6 249.7-748.7 577.6-87.4 171.5-71.6 354.9-47.2 477.4"/>
		<path id="&lt;Path&gt;" class="s0" d="m1084.5-1692.2c84.1 747-142.1 715.8-300.5 811.4-225.2 135.9-402.4 231.7-612.6 401.7-216.6 175.2-22.5 451-236.2 766.7-222.4 328.7-581.6 249.7-748.7 577.6-87.4 171.5-71.6 354.9-47.2 477.4"/>
		<path id="&lt;Path&gt;" class="s0" d="m1122.7-1613.4c84.1 747-142.3 716.1-300.7 811.8-225.2 135.9-402.2 231.3-612.3 401.3-216.6 175.1-22.5 451-236.2 766.7-222.5 328.7-581.7 249.7-748.8 577.6-87.3 171.4-71.6 354.8-47.2 477.4"/>
		<path id="&lt;Path&gt;" class="s0" d="m1163.4-1540.1c84.1 747-142.6 716.5-301 812.2-225.2 135.9-401.9 230.9-612 400.9-216.6 175.2-22.5 451-236.2 766.7-222.5 328.7-581.7 249.7-748.8 577.6-87.4 171.5-71.6 354.9-47.2 477.4"/>
		<path id="&lt;Path&gt;" class="s0" d="m1206.1-1472.1c84.1 747-142.9 716.9-301.3 812.5-225.2 136-401.6 230.6-611.7 400.6-216.6 175.1-22.5 451-236.2 766.7-222.5 328.7-581.7 249.7-748.8 577.6-87.3 171.4-71.6 354.8-47.2 477.4"/>
		<path id="&lt;Path&gt;" class="s0" d="m1250.4-1409.4c84.1 746.9-143.2 717.2-301.6 812.9-225.1 135.9-401.3 230.2-611.4 400.2-216.6 175.1-22.5 451-236.2 766.7-222.5 328.7-581.7 249.6-748.8 577.5-87.3 171.5-71.6 354.9-47.2 477.5"/>
		<path id="&lt;Path&gt;" class="s0" d="m1295.9-1352c84.1 747-143.5 717.7-301.9 813.3-225.1 136-401 229.8-611.1 399.8-216.6 175.2-22.5 451-236.2 766.7-222.5 328.7-581.7 249.7-748.8 577.6-87.4 171.5-71.6 354.9-47.2 477.4"/>
		<path id="&lt;Path&gt;" class="s0" d="m1342.2-1299.6c84.1 746.9-143.8 718-302.2 813.6-225.1 136-400.7 229.5-610.9 399.5-216.6 175.1-22.5 450.9-236.1 766.7-222.5 328.7-581.7 249.6-748.8 577.5-87.4 171.5-71.6 354.9-47.2 477.5"/>
		<path id="&lt;Path&gt;" class="s0" d="m1388.8-1252.4c84.1 747-144.1 718.4-302.5 814.1-225.1 135.9-400.4 229-610.6 399-216.5 175.2-22.5 451-236.1 766.8-222.5 328.6-581.7 249.6-748.8 577.5-87.4 171.5-71.6 354.9-47.2 477.5"/>
		<path id="&lt;Path&gt;" class="s0" d="m1435.3-1210c84.1 746.9-144.3 718.7-302.7 814.4-225.1 135.9-400.2 228.7-610.3 398.6-216.6 175.2-22.5 451-236.2 766.8-222.5 328.6-581.7 249.6-748.8 577.5-87.3 171.5-71.6 354.9-47.2 477.5"/>
		<path id="&lt;Path&gt;" class="s0" d="m1481.4-1172.6c84.1 746.9-144.6 719.1-303 814.8-225.2 135.9-399.9 228.3-610.1 398.3-216.5 175.1-22.4 451-236.1 766.7-222.5 328.7-581.7 249.6-748.8 577.5-87.4 171.5-71.6 354.9-47.2 477.5"/>
		<path id="&lt;Path&gt;" class="s0" d="m1526.5-1140c84.2 746.9-144.8 719.5-303.2 815.2-225.2 135.9-399.6 227.9-609.8 397.9-216.6 175.1-22.5 451-236.2 766.7-222.4 328.7-581.6 249.6-748.7 577.6-87.4 171.4-71.6 354.8-47.2 477.4"/>
		<path id="&lt;Path&gt;" class="s0" d="m1570.4-1112.1c84.1 746.9-145.2 719.9-303.6 815.5-225.1 136-399.3 227.5-609.5 397.5-216.5 175.2-22.4 451-236.1 766.8-222.5 328.6-581.7 249.6-748.8 577.5-87.4 171.5-71.6 354.9-47.2 477.5"/>
		<path id="&lt;Path&gt;" class="s0" d="m1620-1085.2c84.1 747-145.5 720.3-303.9 816-225.1 135.9-399 227.1-609.2 397.1-216.6 175.2-22.5 451-236.2 766.7-222.4 328.7-581.6 249.7-748.7 577.6-87.4 171.5-71.6 354.9-47.2 477.4"/>
		<path id="&lt;Path&gt;" class="s0" d="m1699.2-1051.3c84.2 747-145.7 720.7-304.1 816.3-225.1 136-398.7 226.8-608.9 396.8-216.6 175.1-22.5 451-236.2 766.7-222.5 328.7-581.7 249.7-748.8 577.6-87.3 171.4-71.6 354.8-47.2 477.4"/>
		<path id="&lt;Path&gt;" class="s0" d="m1775.3-1028.7c84.1 746.9-146 721-304.4 816.7-225.1 135.9-398.5 226.4-608.6 396.4-216.6 175.1-22.5 451-236.2 766.7-222.5 328.7-581.7 249.6-748.8 577.6-87.4 171.4-71.6 354.8-47.2 477.4"/>
		<path id="&lt;Path&gt;" class="s0" d="m1848.7-1015.1c84.1 747-146.3 721.4-304.7 817.1-225.1 135.9-398.2 226-608.3 396-216.6 175.1-22.5 451-236.2 766.7-222.5 328.7-581.7 249.7-748.8 577.6-87.4 171.4-71.6 354.8-47.2 477.4"/>
		<path id="&lt;Path&gt;" class="s0" d="m1919.9-1008.1c84.1 747-146.6 721.8-304.9 817.5-225.2 135.9-398 225.6-608.1 395.6-216.6 175.1-22.5 451-236.2 766.7-222.5 328.7-581.7 249.7-748.8 577.6-87.4 171.4-71.6 354.8-47.2 477.4"/>
		<path id="&lt;Path&gt;" class="s0" d="m1989.4-1005.4c84.1 747-146.8 722.2-305.2 817.8-225.2 136-397.7 225.3-607.9 395.3-216.5 175.1-22.4 451-236.1 766.7-222.5 328.7-581.7 249.7-748.8 577.6-87.4 171.4-71.6 354.8-47.2 477.4"/>
		<path id="&lt;Path&gt;" class="s0" d="m2057.7-1004.7c84.1 747-147.1 722.6-305.5 818.3-225.2 135.9-397.4 224.8-607.6 394.8-216.5 175.2-22.4 451-236.1 766.7-222.5 328.7-581.7 249.7-748.8 577.6-87.4 171.5-71.6 354.9-47.2 477.5"/>
		<path id="&lt;Path&gt;" class="s0" d="m2125.3-1003.5c84.1 746.9-147.4 722.9-305.8 818.6-225.2 135.9-397.1 224.5-607.3 394.5-216.6 175.1-22.5 450.9-236.1 766.7-222.5 328.7-581.7 249.6-748.8 577.5-87.4 171.5-71.6 354.9-47.2 477.5"/>
		<path id="&lt;Path&gt;" class="s0" d="m2192.6-999.7c84.1 747-147.6 723.4-306 819-225.2 136-396.8 224.1-607 394.1-216.6 175.2-22.5 451-236.2 766.7-222.5 328.7-581.7 249.7-748.8 577.6-87.3 171.5-71.6 354.9-47.2 477.4"/>
		<path id="&lt;Path&gt;" class="s0" d="m2260.3-990.8c84.1 747-148 723.7-306.4 819.4-225.1 135.9-396.5 223.7-606.7 393.7-216.6 175.2-22.5 451-236.2 766.7-222.4 328.7-581.6 249.7-748.7 577.6-87.4 171.4-71.6 354.8-47.2 477.4"/>
		<path id="&lt;Path&gt;" class="s0" d="m2328.7-974.5c84.1 747-148.3 724.1-306.7 819.7-225.1 136-396.2 223.4-606.4 393.4-216.6 175.1-22.5 451-236.2 766.7-222.4 328.7-581.6 249.7-748.7 577.6-87.4 171.4-71.6 354.8-47.2 477.4"/>
		<path id="&lt;Path&gt;" class="s0" d="m2398.3-948.5c84.1 746.9-148.5 724.5-306.9 820.1-225.2 136-396 223-606.2 393-216.5 175.1-22.4 451-236.1 766.7-222.5 328.7-581.7 249.6-748.8 577.6-87.4 171.4-71.6 354.8-47.2 477.4"/>
		<path id="&lt;Path&gt;" class="s0" d="m2469.7-910.5c84.1 747-148.8 724.9-307.2 820.5-225.1 136-395.7 222.6-605.9 392.6-216.5 175.2-22.4 451-236.1 766.7-222.5 328.7-581.7 249.7-748.8 577.6-87.4 171.5-71.6 354.9-47.2 477.4"/>
		<path id="&lt;Path&gt;" class="s0" d="m2540.9-859.7c84.1 747-149.1 725.3-307.5 820.9-225.1 136-395.4 222.2-605.6 392.2-216.5 175.2-22.4 451-236.1 766.7-222.5 328.7-581.7 249.7-748.8 577.6-87.4 171.5-71.6 354.9-47.2 477.4"/>
		<path id="&lt;Path&gt;" class="s0" d="m2598.5-805c84.1 746.9-149.3 725.6-307.7 821.3-225.2 135.9-395.2 221.8-605.3 391.8-216.6 175.1-22.5 451-236.2 766.7-222.5 328.7-581.7 249.6-748.8 577.5-87.3 171.5-71.6 354.9-47.2 477.5"/>
		<path id="&lt;Path&gt;" class="s0" d="m2643.2-748.1c84.1 747-149.6 726-308 821.7-225.2 135.9-394.9 221.4-605.1 391.4-216.5 175.1-22.4 451-236.1 766.7-222.5 328.7-581.7 249.7-748.8 577.6-87.4 171.4-71.6 354.8-47.2 477.4"/>
		<path id="&lt;Path&gt;" class="s0" d="m2677.5-689.2c84.2 747-149.9 726.4-308.3 822.1-225.1 135.9-394.5 221-604.7 391-216.6 175.2-22.5 451-236.2 766.7-222.4 328.7-581.6 249.7-748.7 577.6-87.4 171.5-71.7 354.9-47.2 477.4"/>
		<path id="&lt;Path&gt;" class="s0" d="m2704.2-628.6c84.1 747-150.2 726.8-308.6 822.4-225.1 136-394.3 220.7-604.4 390.7-216.6 175.2-22.5 451-236.2 766.7-222.5 328.7-581.7 249.7-748.8 577.6-87.4 171.5-71.6 354.9-47.2 477.4"/>
		<path id="&lt;Path&gt;" class="s0" d="m2725.8-566.6c84.2 747-150.4 727.2-308.8 822.8-225.2 136-394 220.3-604.2 390.3-216.6 175.1-22.5 451-236.2 766.7-222.4 328.7-581.7 249.7-748.7 577.6-87.4 171.4-71.7 354.8-47.2 477.4"/>
		<path id="&lt;Path&gt;" class="s0" d="m2745.1-503.5c84.1 746.9-150.8 727.5-309.2 823.2-225.1 135.9-393.7 219.9-603.9 389.8-216.6 175.2-22.5 451-236.2 766.8-222.4 328.6-581.6 249.6-748.7 577.5-87.4 171.5-71.6 354.9-47.2 477.5"/>
		<path id="&lt;Path&gt;" class="s0" d="m2764.5-439.7c84.1 747-151 727.9-309.4 823.6-225.2 135.9-393.5 219.5-603.7 389.5-216.5 175.2-22.4 451-236.1 766.7-222.5 328.7-581.7 249.7-748.8 577.6-87.4 171.5-71.6 354.9-47.2 477.4"/>
		<path id="&lt;Path&gt;" class="s0" d="m2786.8-375.3c84.1 746.9-151.3 728.3-309.7 823.9-225.2 136-393.2 219.2-603.4 389.1-216.5 175.2-22.4 451-236.1 766.8-222.5 328.7-581.7 249.6-748.8 577.5-87.4 171.5-71.6 354.9-47.2 477.5"/>
		<path id="&lt;Path&gt;" class="s0" d="m2814.6-310.8c84.1 747-151.6 728.7-310 824.3-225.1 136-392.9 218.8-603 388.8-216.6 175.1-22.5 451-236.2 766.7-222.5 328.7-581.7 249.7-748.8 577.6-87.4 171.4-71.6 354.8-47.2 477.4"/>
		<path id="&lt;Path&gt;" class="s0" d="m2850.6-246.4c84.1 747-151.9 729.1-310.3 824.8-225.2 135.9-392.6 218.3-602.8 388.3-216.6 175.2-22.5 451-236.2 766.7-222.4 328.7-581.6 249.7-748.7 577.6-87.4 171.5-71.6 354.9-47.2 477.4"/>
		<path id="&lt;Path&gt;" class="s0" d="m2897.3-182.3c84.1 746.9-152.2 729.4-310.6 825.1-225.1 135.9-392.3 218-602.5 388-216.6 175.1-22.5 451-236.1 766.7-222.5 328.7-581.7 249.6-748.8 577.6-87.4 171.4-71.6 354.8-47.2 477.4"/>
		<path id="&lt;Path&gt;" class="s0" d="m2957.4-119c84.1 747-152.4 729.9-310.8 825.5-225.2 136-392.1 217.6-602.3 387.6-216.5 175.2-22.4 451-236.1 766.7-222.5 328.7-581.7 249.7-748.8 577.6-87.4 171.5-71.6 354.9-47.2 477.4"/>
		<path id="&lt;Path&gt;" class="s0" d="m3027.5-61.1c84.1 747-152.7 730.2-311.1 825.9-225.1 135.9-391.8 217.2-601.9 387.2-216.6 175.1-22.5 451-236.2 766.7-222.5 328.7-581.7 249.7-748.8 577.6-87.3 171.4-71.6 354.8-47.2 477.4"/>
		<path id="&lt;Path&gt;" class="s0" d="m3093.3-17.8c84.1 746.9-153 730.6-311.4 826.2-225.2 136-391.5 216.8-601.7 386.8-216.6 175.2-22.5 451-236.2 766.8-222.4 328.6-581.6 249.6-748.7 577.5-87.4 171.5-71.6 354.9-47.2 477.5"/>
		<path id="&lt;Path&gt;" class="s0" d="m3158.4 16c84.2 747-153.2 731-311.6 826.7-225.2 135.9-391.2 216.4-601.4 386.4-216.6 175.2-22.5 451-236.2 766.7-222.5 328.7-581.7 249.7-748.8 577.6-87.3 171.5-71.6 354.9-47.2 477.4"/>
		<path id="&lt;Path&gt;" class="s0" d="m3223.3 42.2c84.1 747-153.6 731.4-312 827.1-225.1 135.9-390.9 216-601.1 386-216.6 175.2-22.5 451-236.2 766.8-222.4 328.6-581.6 249.6-748.7 577.5-87.4 171.5-71.6 354.9-47.2 477.5"/>
		<path id="&lt;Path&gt;" class="s0" d="m3287.9 62.5c84.2 747-153.8 731.7-312.2 827.4-225.1 135.9-390.6 215.7-600.8 385.7-216.6 175.1-22.5 451-236.2 766.7-222.4 328.7-581.6 249.7-748.7 577.6-87.4 171.4-71.7 354.8-47.2 477.4"/>
		<path id="&lt;Path&gt;" class="s0" d="m3352.7 78.5c84.1 747-154.1 732.1-312.5 827.8-225.2 135.9-390.4 215.3-600.6 385.3-216.6 175.2-22.5 451-236.1 766.7-222.5 328.7-581.7 249.7-748.8 577.6-87.4 171.4-71.6 354.8-47.2 477.4"/>
		<path id="&lt;Path&gt;" class="s0" d="m3417.7 92c84.1 746.9-154.4 732.5-312.8 828.1-225.2 136-390.1 215-600.3 385-216.6 175.1-22.5 451-236.2 766.7-222.4 328.7-581.6 249.6-748.7 577.6-87.4 171.4-71.6 354.8-47.2 477.4"/>
		<path id="&lt;Path&gt;" class="s0" d="m3483.1 104.6c84.1 747-154.7 732.9-313.1 828.6-225.1 135.9-389.8 214.5-600 384.5-216.5 175.2-22.4 451-236.1 766.7-222.5 328.7-581.7 249.7-748.8 577.6-87.4 171.5-71.6 354.9-47.2 477.4"/>
		<path id="&lt;Path&gt;" class="s0" d="m3549.2 118.2c84.1 746.9-154.9 733.2-313.3 828.9-225.2 135.9-389.6 214.2-599.8 384.2-216.5 175.1-22.4 451-236.1 766.7-222.5 328.7-581.7 249.6-748.8 577.5-87.4 171.5-71.6 354.9-47.2 477.5"/>
		<path id="&lt;Path&gt;" class="s0" d="m3616.2 134.3c84.1 747-155.3 733.7-313.7 829.3-225.1 136-389.2 213.8-599.4 383.8-216.6 175.2-22.5 451-236.2 766.7-222.4 328.7-581.6 249.7-748.7 577.6-87.4 171.5-71.6 354.9-47.2 477.4"/>
		<path id="&lt;Path&gt;" class="s0" d="m3684.2 154.8c84.1 746.9-155.5 734-313.9 829.7-225.2 135.9-389 213.4-599.2 383.4-216.6 175.1-22.5 451-236.2 766.7-222.4 328.7-581.6 249.6-748.7 577.6-87.4 171.4-71.6 354.8-47.2 477.4"/>
		<path id="&lt;Path&gt;" class="s0" d="m3753.4 181.3c84.1 746.9-155.8 734.4-314.1 830-225.2 136-388.7 213.1-598.9 383.1-216.6 175.1-22.5 450.9-236.2 766.7-222.5 328.7-581.7 249.6-748.8 577.5-87.3 171.5-71.6 354.9-47.2 477.5"/>
		<path id="&lt;Path&gt;" class="s0" d="m3824.2 215.5c84.1 747-156.1 734.8-314.5 830.4-225.2 136-388.4 212.7-598.6 382.7-216.6 175.1-22.5 451-236.2 766.7-222.4 328.7-581.6 249.7-748.7 577.6-87.4 171.4-71.6 354.8-47.2 477.4"/>
		<path id="&lt;Path&gt;" class="s0" d="m3896.5 259.2c84.2 747-156.3 735.2-314.7 830.8-225.1 136-388.1 212.3-598.3 382.3-216.6 175.1-22.5 451-236.2 766.7-222.4 328.7-581.6 249.7-748.7 577.6-87.4 171.4-71.7 354.8-47.2 477.4"/>
		<path id="&lt;Path&gt;" class="s0" d="m3970.8 314c84.1 747-156.6 735.6-315 831.2-225.2 136-387.9 211.9-598.1 381.9-216.5 175.2-22.4 451-236.1 766.7-222.5 328.7-581.7 249.7-748.8 577.6-87.4 171.5-71.6 354.9-47.2 477.4"/>
		<path id="&lt;Path&gt;" class="s0" d="m4044.4 380.3c84.2 747-156.9 736-315.3 831.6-225.1 136-387.5 211.5-597.7 381.5-216.6 175.2-22.5 451-236.2 766.7-222.4 328.7-581.7 249.7-748.8 577.6-87.3 171.5-71.6 354.9-47.1 477.4"/>
		<path id="&lt;Path&gt;" class="s0" d="m4099.9 443.7c84.1 746.9-157.2 736.3-315.6 831.9-225.2 136-387.3 211.2-597.5 381.1-216.6 175.2-22.5 451-236.2 766.8-222.4 328.6-581.6 249.6-748.7 577.5-87.4 171.5-71.6 354.9-47.2 477.5"/>
		<path id="&lt;Path&gt;" class="s0" d="m4140.6 503.9c84.1 746.9-157.4 736.7-315.8 832.3-225.2 136-387 210.8-597.2 380.7-216.6 175.2-22.5 451-236.2 766.8-222.5 328.7-581.7 249.6-748.8 577.5-87.3 171.5-71.6 354.9-47.2 477.5"/>
		<path id="&lt;Path&gt;" class="s0" d="m4171.6 561.9c84.1 747-157.7 737.1-316.1 832.7-225.2 136-386.8 210.4-597 380.4-216.5 175.1-22.4 451-236.1 766.7-222.5 328.7-581.7 249.7-748.8 577.6-87.4 171.4-71.6 354.8-47.2 477.4"/>
		<path id="&lt;Path&gt;" class="s0" d="m4197.6 618.7c84.2 747-158 737.5-316.4 833.1-225.1 135.9-386.4 210-596.6 380-216.6 175.1-22.5 451-236.2 766.7-222.4 328.7-581.7 249.7-748.8 577.6-87.3 171.4-71.6 354.8-47.1 477.4"/>
		<path id="&lt;Path&gt;" class="s0" d="m4223.6 675.2c84.2 747-158.3 737.8-316.6 833.5-225.2 135.9-386.2 209.6-596.4 379.6-216.6 175.1-22.5 451-236.2 766.7-222.4 328.7-581.6 249.7-748.7 577.6-87.4 171.4-71.7 354.8-47.2 477.4"/>
	</g>
</svg>